<svg width="40" height="40" viewBox="0 0 40 40" fill="none" xmlns="http://www.w3.org/2000/svg">
<circle cx="20" cy="20" r="20" fill="white"/>
<path d="M31.4497 13.9481C31.6174 13.4011 31.4497 13 30.6568 13H28.0303C27.362 13 27.0566 13.347 26.8889 13.7281C26.8889 13.7281 25.5535 16.9264 23.6611 19.0002C23.0503 19.6036 22.7712 19.7942 22.4382 19.7942C22.2718 19.7942 22.0298 19.6036 22.0298 19.0566V13.9481C22.0298 13.2917 21.837 13 21.2801 13H17.1528C16.736 13 16.4845 13.3035 16.4845 13.5928C16.4845 14.2139 17.4307 14.3574 17.5277 16.1077V19.9047C17.5277 20.7363 17.3756 20.8881 17.0402 20.8881C16.1503 20.8881 13.9849 17.678 12.6998 14.0034C12.4494 13.2894 12.1967 13.0012 11.526 13.0012H8.90067C8.14971 13.0012 8 13.3482 8 13.7293C8 14.4139 8.88989 17.8015 12.1452 22.282C14.3155 25.3415 17.3708 27 20.1542 27C21.8226 27 22.0286 26.6318 22.0286 25.9966V23.6841C22.0286 22.9477 22.1879 22.7995 22.7161 22.7995C23.1042 22.7995 23.7725 22.9924 25.3307 24.4663C27.1105 26.2142 27.4051 26.9988 28.4052 26.9988H31.0305C31.7803 26.9988 32.1552 26.6306 31.9396 25.9037C31.7036 25.1803 30.8533 24.1275 29.725 22.8819C29.1118 22.1714 28.1956 21.4068 27.9165 21.0245C27.5273 20.5317 27.6398 20.3141 27.9165 19.8765C27.9177 19.8777 31.1168 15.4525 31.4497 13.9481Z" fill="#257C25"/>
</svg>
