<svg width="24" height="24" viewBox="0 0 24 24" fill="none" xmlns="http://www.w3.org/2000/svg">
<path d="M21.4737 11.367H24C24 4.8871 19.1078 0 12.6191 0V2.52628C17.75 2.52628 21.4737 6.24371 21.4737 11.367Z" fill="#21B82F"/>
<path d="M12.6319 7.57871C15.2883 7.57871 16.4213 8.71175 16.4213 11.3681H18.9476C18.9476 7.29451 16.7055 5.05243 12.6319 5.05243V7.57871ZM16.9544 14.454C16.7117 14.2334 16.3927 14.1157 16.0649 14.1259C15.737 14.136 15.426 14.2731 15.1973 14.5083L12.1746 17.6169C11.4471 17.478 9.98436 17.022 8.47869 15.5201C6.97302 14.0132 6.51703 12.5467 6.38187 11.8241L9.48794 8.80017C9.72341 8.5717 9.86074 8.26058 9.87088 7.93265C9.88101 7.60472 9.76316 7.28572 9.54226 7.04314L4.87494 1.91099C4.65395 1.66766 4.3468 1.52005 4.01873 1.49954C3.69066 1.47902 3.36751 1.5872 3.11791 1.8011L0.376895 4.15181C0.158512 4.37098 0.0281657 4.66269 0.0105834 4.97159C-0.00836377 5.28737 -0.369622 12.7677 5.43073 18.5706C10.4909 23.6295 16.8293 23.9996 18.575 23.9996C18.8301 23.9996 18.9868 23.992 19.0285 23.9895C19.3373 23.9722 19.6289 23.8412 19.847 23.6219L22.1964 20.8796C22.4105 20.6302 22.5189 20.3071 22.4986 19.979C22.4783 19.651 22.3309 19.3437 22.0878 19.1226L16.9544 14.454Z" fill="#21B82F"/>
</svg>
