<svg width="14" height="16" viewBox="0 0 14 16" fill="none" xmlns="http://www.w3.org/2000/svg">
<path d="M0 11.7895C0 12.5305 0.34125 13.1958 0.875 13.6589V15.1579C0.875 15.6211 1.26875 16 1.75 16H2.625C3.10625 16 3.5 15.6211 3.5 15.1579V14.3158H10.5V15.1579C10.5 15.6211 10.8938 16 11.375 16H12.25C12.7312 16 13.125 15.6211 13.125 15.1579V13.6589C13.6587 13.1958 14 12.5305 14 11.7895V3.36842C14 0.421053 10.8675 0 7 0C3.1325 0 0 0.421053 0 3.36842V11.7895ZM3.0625 12.6316C2.33625 12.6316 1.75 12.0674 1.75 11.3684C1.75 10.6695 2.33625 10.1053 3.0625 10.1053C3.78875 10.1053 4.375 10.6695 4.375 11.3684C4.375 12.0674 3.78875 12.6316 3.0625 12.6316ZM10.9375 12.6316C10.2113 12.6316 9.625 12.0674 9.625 11.3684C9.625 10.6695 10.2113 10.1053 10.9375 10.1053C11.6637 10.1053 12.25 10.6695 12.25 11.3684C12.25 12.0674 11.6637 12.6316 10.9375 12.6316ZM12.25 7.57895H1.75V3.36842H12.25V7.57895Z" fill="#21B82F"/>
</svg>
